Coordinates
version=1
nRows=15
nColumns=34
inDegrees=no

Units are S.I. units (second, meters, Newtons, ...)
If the header above contains a line with 'inDegrees', this indicates whether rotational values are in degrees (yes) or radians (no).

endheader
time	pelvis_tilt	pelvis_list	pelvis_rotation	pelvis_tx	pelvis_ty	pelvis_tz	hip_flexion_r	hip_adduction_r	hip_rotation_r	knee_angle_r	ankle_angle_r	subtalar_angle_r	mtp_angle_r	hip_flexion_l	hip_adduction_l	hip_rotation_l	knee_angle_l	ankle_angle_l	subtalar_angle_l	mtp_angle_l	lumbar_extension	lumbar_bending	lumbar_rotation	arm_flex_r	arm_add_r	arm_rot_r	elbow_flex_r	pro_sup_r	arm_flex_l	arm_add_l	arm_rot_l	elbow_flex_l	pro_sup_l
10.03	-0.359313	0.0268059	0.0264344	-0.238397	0.871546	-0.55847	0.882561	-0.177569	-0.0978985	0.852689	0.484166	0.0348074	-0.00241763	0.882459	-0.237426	-0.177093	0.813192	0.360551	0.227375	-0.00241763	-0.0545448	0.0163313	0.0331617	0.762539	-0.390075	-0.226047	0.631921	2.09	1.03238	-0.378802	-0.0558846	0.535668	2.09
10.04	-0.345591	0.0270007	0.0266219	-0.232827	0.877505	-0.557904	0.84772	-0.1745	-0.100828	0.828555	0.477387	0.0490808	-0.00241763	0.848466	-0.234636	-0.180309	0.78985	0.354371	0.23745	-0.00241763	-0.0467873	0.0160493	0.0330679	0.716671	-0.379755	-0.259115	0.628002	2.09	0.993494	-0.37892	-0.0663503	0.518776	2.09
10.05	-0.331166	0.027651	0.0278347	-0.227239	0.883446	-0.557507	0.811966	-0.173205	-0.105075	0.80439	0.471413	0.0638292	-0.00241763	0.813789	-0.230167	-0.182056	0.766042	0.346735	0.245241	-0.00241763	-0.0401798	0.0154644	0.0317762	0.671548	-0.36982	-0.287796	0.624219	2.09	0.954221	-0.378727	-0.076517	0.503433	2.09
10.06	-0.31612	0.0286234	0.0292801	-0.221643	0.889347	-0.557301	0.775377	-0.172812	-0.109771	0.779836	0.466162	0.0766099	-0.00241763	0.778408	-0.22482	-0.1829	0.741928	0.338529	0.251176	-0.00241763	-0.034864	0.0149577	0.0295807	0.627678	-0.360427	-0.31064	0.620601	2.09	0.913328	-0.379727	-0.0840789	0.491886	2.09
10.07	-0.301283	0.0295584	0.0294231	-0.216062	0.895058	-0.556926	0.739147	-0.170732	-0.112156	0.754826	0.46064	0.0862012	-0.00241763	0.743067	-0.220897	-0.184682	0.717995	0.330521	0.258024	-0.00241763	-0.0297834	0.0143377	0.0287083	0.583877	-0.351472	-0.32986	0.61845	2.09	0.872436	-0.380295	-0.0930528	0.482055	2.09
10.08	-0.286395	0.0304539	0.0289621	-0.21048	0.9006	-0.556405	0.702665	-0.167754	-0.113107	0.729292	0.455228	0.0951123	-0.00241763	0.707521	-0.217719	-0.186905	0.694039	0.322388	0.265712	-0.00241763	-0.025232	0.0135098	0.0289578	0.53961	-0.34242	-0.349095	0.618826	2.09	0.832776	-0.378672	-0.10758	0.47255	2.09
10.09	-0.270956	0.0313034	0.0293239	-0.204926	0.90605	-0.556097	0.665047	-0.165739	-0.114999	0.703074	0.449954	0.104272	-0.00241763	0.671625	-0.213507	-0.187679	0.669884	0.313618	0.271569	-0.00241763	-0.0220676	0.0130551	0.0279397	0.496237	-0.333118	-0.367695	0.620964	2.09	0.792891	-0.376197	-0.125526	0.465248	2.09
10.1	-0.255837	0.0319919	0.0297939	-0.199499	0.911289	-0.555912	0.627935	-0.163629	-0.116426	0.676565	0.443432	0.110276	-0.00241763	0.636543	-0.209	-0.187351	0.646001	0.30435	0.275171	-0.00241763	-0.0194059	0.0130148	0.0256222	0.454417	-0.323779	-0.382991	0.624072	2.09	0.751713	-0.374822	-0.141879	0.460793	2.09
10.11	-0.241551	0.0325265	0.0290582	-0.19427	0.916209	-0.555522	0.592602	-0.160057	-0.115322	0.650385	0.435139	0.112142	-0.00241763	0.602663	-0.205568	-0.187378	0.622655	0.294936	0.277722	-0.00241763	-0.0163562	0.0127231	0.024753	0.412873	-0.314552	-0.396071	0.628275	2.09	0.711475	-0.373436	-0.154707	0.45613	2.09
10.12	-0.227185	0.0326813	0.0275556	-0.189217	0.920871	-0.555001	0.557681	-0.155771	-0.11346	0.624508	0.426058	0.113855	-0.00241763	0.56909	-0.20305	-0.18747	0.599833	0.28546	0.278912	-0.00241763	-0.0137025	0.0123162	0.0267738	0.370654	-0.305891	-0.408956	0.632863	2.09	0.674825	-0.369818	-0.164487	0.448702	2.09
10.13	-0.212343	0.0323701	0.0264539	-0.184253	0.925337	-0.554597	0.522211	-0.151968	-0.113209	0.598741	0.417078	0.118121	-0.00241763	0.535582	-0.200561	-0.186625	0.577518	0.275823	0.277961	-0.00241763	-0.0121984	0.0124338	0.029652	0.328539	-0.298221	-0.419531	0.636968	2.09	0.640303	-0.364703	-0.172271	0.440375	2.09
10.14	-0.197873	0.0323406	0.025691	-0.179312	0.929569	-0.554265	0.487365	-0.148924	-0.113438	0.573487	0.408632	0.123386	-0.00241763	0.502714	-0.197614	-0.185497	0.555533	0.266162	0.276049	-0.00241763	-0.011467	0.0127996	0.0310574	0.287817	-0.290922	-0.425638	0.641327	2.09	0.604378	-0.360779	-0.178961	0.434689	2.09
10.15	-0.184371	0.0328345	0.0243263	-0.17445	0.933523	-0.553849	0.454125	-0.145825	-0.111604	0.548802	0.400541	0.126721	-0.00241763	0.470937	-0.194614	-0.184867	0.53389	0.25653	0.273716	-0.00241763	-0.0109102	0.0133066	0.0299099	0.251062	-0.283176	-0.425633	0.643823	2.09	0.564567	-0.358769	-0.191599	0.435594	2.09
10.16	-0.171167	0.0331468	0.021924	-0.169792	0.937211	-0.553363	0.421609	-0.141866	-0.107307	0.524042	0.392526	0.127368	-0.00241763	0.439844	-0.1922	-0.184083	0.512845	0.247034	0.270177	-0.00241763	-0.0107931	0.0142071	0.0285682	0.218105	-0.275221	-0.423923	0.643224	2.09	0.524237	-0.356192	-0.209623	0.439718	2.09
10.17	-0.15764	0.0327383	0.0195076	-0.165374	0.940663	-0.553015	0.388775	-0.137596	-0.103234	0.498979	0.384747	0.12665	-0.00241763	0.409351	-0.190243	-0.18182	0.492818	0.237693	0.265024	-0.00241763	-0.0114267	0.0155918	0.0277233	0.187498	-0.268069	-0.4233	0.639922	2.09	0.486126	-0.351357	-0.230029	0.443069	2.09
